<?xml version="1.0" encoding="UTF-8"?>
<svg id="Calque_1" data-name="Calque 1" xmlns="http://www.w3.org/2000/svg" xmlns:xlink="http://www.w3.org/1999/xlink" viewBox="0 0 313 313">
  <defs>
    <style>
      .cls-1 {
        fill: #dddcc8;
      }

      .cls-1, .cls-2 {
        stroke-width: 0px;
      }

      .cls-2 {
        fill: url(#Dégradé_sans_nom_24);
      }
    </style>
    <linearGradient id="Dégradé_sans_nom_24" data-name="Dégradé sans nom 24" x1="-23.03" y1="244.06" x2="353.15" y2="60.59" gradientUnits="userSpaceOnUse">
      <stop offset="0" stop-color="#dc4c47"/>
      <stop offset=".2" stop-color="#d2586e"/>
      <stop offset=".48" stop-color="#c56aa3"/>
      <stop offset=".56" stop-color="#be67a8"/>
      <stop offset=".67" stop-color="#aa60b7"/>
      <stop offset=".8" stop-color="#8b55cf"/>
      <stop offset=".94" stop-color="#5f45f0"/>
      <stop offset="1" stop-color="#4d3fff"/>
    </linearGradient>
  </defs>
  <rect class="cls-2" width="313" height="313"/>
  <path class="cls-1" d="m184.56,41.67c28.38,11.02,43.33,42.16,39.82,71.57-2.78,23.27-14.45,41.17-31.54,57.09-7.51,6.99-14.98,14.03-22.41,21.1-13.02,12.39-23.29,27.56-24.4,46.05-1.08,17.99,3.9,33.47,14.95,46.42,1.19,1.39.98,1.65-.63.79-21.3-11.36-31.82-37.67-31.13-60.95.86-29.22,25.56-45.73,45.03-62.98,16.81-14.91,27.87-31.02,28.63-54.25,1.21-36.88-43.32-59.62-73.29-39.85-11.75,7.75-19.02,20.15-17.58,34.33,1.51,14.95,12.28,25.72,27.15,26.97,3.99.34,7.67-.07,11.02-1.23,8.54-2.96,15.19-11.48,14.31-20.88-.34-3.75-1.91-9.23-6.24-9.61-8.8-.78-14.48,7.81-14.84,15.78-.01.36-.2.51-.55.46-7.87-1.22-12.32-6.89-12.26-14.68.07-8.36,6.01-14.92,13.69-17.93,12.08-4.72,27.55-1.75,34.68,9.78,6.51,10.52,5.95,25,.14,35.97-6.48,12.27-19.95,18.98-33.62,20.24-30.78,2.83-56.28-17.51-56.6-49.1-.51-50.54,54.95-70.89,95.67-55.09h0Z"/>
</svg>